<svg xmlns="http://www.w3.org/2000/svg" xmlns:xlink="http://www.w3.org/1999/xlink" width="2000" zoomAndPan="magnify" viewBox="0 0 1500 1499.999933" height="2000" preserveAspectRatio="xMidYMid meet" version="1.0"><defs><g/><clipPath id="f184a17227"><rect x="0" width="1243" y="0" height="899"/></clipPath><clipPath id="e6e4c6c3ca"><path d="M 218.078125 356.074219 L 308.808594 356.074219 L 308.808594 872.691406 L 218.078125 872.691406 Z M 218.078125 356.074219 " clip-rule="nonzero"/></clipPath><clipPath id="f1e99c1077"><path d="M 0.078125 0.0742188 L 90.808594 0.0742188 L 90.808594 516.691406 L 0.078125 516.691406 Z M 0.078125 0.0742188 " clip-rule="nonzero"/></clipPath><clipPath id="2d582d86ae"><rect x="0" width="91" y="0" height="517"/></clipPath><clipPath id="9c61ae59c2"><path d="M 211.234375 871.179688 L 308.808594 871.179688 L 308.808594 956.433594 L 211.234375 956.433594 Z M 211.234375 871.179688 " clip-rule="nonzero"/></clipPath><clipPath id="15379ef813"><path d="M 260.089844 956.433594 L 211.375 871.179688 L 308.808594 871.179688 Z M 260.089844 956.433594 " clip-rule="nonzero"/></clipPath><clipPath id="5a1bf1ec7a"><path d="M 0.234375 0.179688 L 97.808594 0.179688 L 97.808594 85.433594 L 0.234375 85.433594 Z M 0.234375 0.179688 " clip-rule="nonzero"/></clipPath><clipPath id="031a8a9d7b"><path d="M 49.089844 85.433594 L 0.375 0.179688 L 97.808594 0.179688 Z M 49.089844 85.433594 " clip-rule="nonzero"/></clipPath><clipPath id="d20c62f881"><rect x="0" width="98" y="0" height="86"/></clipPath><clipPath id="5f93ec9d06"><path d="M 218.078125 833.949219 L 251.902344 833.949219 L 251.902344 966.59375 L 218.078125 966.59375 Z M 218.078125 833.949219 " clip-rule="nonzero"/></clipPath><clipPath id="cb18920a61"><path d="M 0.078125 0.949219 L 33.902344 0.949219 L 33.902344 133.59375 L 0.078125 133.59375 Z M 0.078125 0.949219 " clip-rule="nonzero"/></clipPath><clipPath id="6fd1b35f81"><rect x="0" width="34" y="0" height="134"/></clipPath></defs><g transform="matrix(1, 0, 0, 1, 129, 300)"><g clip-path="url(#f184a17227)"><g fill="#4fc3c3" fill-opacity="1"><g transform="translate(0.336438, 698.556066)"><g><path d="M 583.265625 0 L 442.6875 0 L 268.203125 -238.296875 L 100.703125 0 L 80.765625 0 L 80.765625 -656.0625 L 193.421875 -656.0625 L 193.421875 -166.5 L 537.40625 -656.0625 L 561.34375 -656.0625 L 336 -336 Z M 544.390625 -19.9375 L 325.03125 -318.0625 L 281.171875 -255.25 L 453.65625 -19.9375 Z M 100.703125 -34.890625 L 173.484375 -138.59375 L 173.484375 -636.109375 L 100.703125 -636.109375 Z M 100.703125 -34.890625 "/></g></g></g><g fill="#4fc3c3" fill-opacity="1"><g transform="translate(583.608459, 698.556066)"><g><path d="M 583.265625 -174.484375 C 583.265625 -116.648438 559.003906 -72.113281 510.484375 -40.875 C 461.960938 -8.96875 401.476562 6.984375 329.03125 6.984375 C 259.226562 6.984375 199.40625 -8.96875 149.5625 -40.875 C 99.707031 -72.78125 74.78125 -117.316406 74.78125 -174.484375 C 74.78125 -219.679688 89.40625 -257.238281 118.65625 -287.15625 C 147.226562 -316.394531 186.773438 -336.332031 237.296875 -346.96875 C 142.242188 -372.894531 94.71875 -423.414062 94.71875 -498.53125 C 94.71875 -553.03125 117.316406 -593.90625 162.515625 -621.15625 C 209.046875 -648.414062 264.550781 -662.046875 329.03125 -662.046875 C 398.820312 -662.046875 454.988281 -648.75 497.53125 -622.15625 C 541.394531 -595.570312 563.328125 -554.363281 563.328125 -498.53125 C 563.328125 -459.96875 551.03125 -427.726562 526.4375 -401.8125 C 501.84375 -375.882812 467.941406 -357.601562 424.734375 -346.96875 C 530.421875 -324.375 583.265625 -266.878906 583.265625 -174.484375 Z M 415.765625 -633.125 C 425.078125 -625.8125 432.390625 -618.164062 437.703125 -610.1875 C 456.984375 -582.9375 466.625 -545.71875 466.625 -498.53125 C 466.625 -452 456.984375 -415.101562 437.703125 -387.84375 C 432.390625 -379.875 423.75 -371.566406 411.78125 -362.921875 C 427.726562 -364.921875 450.328125 -374.226562 479.578125 -390.84375 C 522.117188 -415.4375 543.390625 -451.332031 543.390625 -498.53125 C 543.390625 -523.78125 538.070312 -545.710938 527.4375 -564.328125 C 517.46875 -581.609375 502.84375 -596.234375 483.5625 -608.203125 C 464.957031 -618.835938 442.359375 -627.144531 415.765625 -633.125 Z M 250.265625 -362.921875 C 240.953125 -369.566406 232.640625 -377.546875 225.328125 -386.859375 C 202.734375 -416.097656 191.4375 -453.320312 191.4375 -498.53125 C 191.4375 -544.382812 202.734375 -581.9375 225.328125 -611.1875 C 231.316406 -619.832031 238.628906 -627.144531 247.265625 -633.125 C 220.015625 -627.800781 197.082031 -619.160156 178.46875 -607.203125 C 135.925781 -582.609375 114.65625 -546.382812 114.65625 -498.53125 C 114.65625 -453.320312 136.925781 -417.425781 181.46875 -390.84375 C 211.375 -372.894531 234.304688 -363.585938 250.265625 -362.921875 Z M 329.03125 -356.9375 C 407.457031 -356.9375 446.671875 -404.132812 446.671875 -498.53125 C 446.671875 -593.570312 407.457031 -641.09375 329.03125 -641.09375 C 292.46875 -641.09375 263.882812 -628.132812 243.28125 -602.21875 C 222.007812 -575.625 211.375 -541.0625 211.375 -498.53125 C 211.375 -457.3125 222.007812 -423.410156 243.28125 -396.828125 C 263.882812 -370.234375 292.46875 -356.9375 329.03125 -356.9375 Z M 234.3125 -24.921875 C 223.007812 -34.234375 214.035156 -43.539062 207.390625 -52.84375 C 183.453125 -86.082031 171.484375 -126.628906 171.484375 -174.484375 C 171.484375 -222.335938 183.78125 -262.882812 208.375 -296.125 C 217.6875 -308.75 230.648438 -320.378906 247.265625 -331.015625 C 218.679688 -326.367188 190.429688 -315.070312 162.515625 -297.125 C 117.316406 -267.875 94.71875 -226.992188 94.71875 -174.484375 C 94.71875 -147.890625 101.03125 -124.289062 113.65625 -103.6875 C 124.957031 -85.738281 142.242188 -69.125 165.515625 -53.84375 C 186.785156 -41.207031 209.71875 -31.566406 234.3125 -24.921875 Z M 466.625 -174.484375 C 466.625 -223.671875 455.65625 -262.890625 433.71875 -292.140625 C 411.113281 -321.378906 376.21875 -336 329.03125 -336 C 283.820312 -336 249.585938 -320.046875 226.328125 -288.140625 C 203.066406 -255.578125 191.4375 -217.691406 191.4375 -174.484375 C 191.4375 -131.273438 203.066406 -93.382812 226.328125 -60.8125 C 249.585938 -29.570312 283.820312 -13.953125 329.03125 -13.953125 C 378.875 -13.953125 414.101562 -29.242188 434.71875 -59.828125 C 455.988281 -91.066406 466.625 -129.285156 466.625 -174.484375 Z M 563.328125 -174.484375 C 563.328125 -227.660156 542.054688 -268.539062 499.515625 -297.125 C 469.609375 -315.726562 441.359375 -327.359375 414.765625 -332.015625 C 431.390625 -322.046875 444.6875 -310.082031 454.65625 -296.125 C 475.925781 -263.550781 486.5625 -223.003906 486.5625 -174.484375 C 486.5625 -125.296875 475.925781 -85.082031 454.65625 -53.84375 C 445.34375 -40.550781 436.703125 -30.910156 428.734375 -24.921875 C 453.992188 -32.234375 476.257812 -41.875 495.53125 -53.84375 C 540.726562 -83.082031 563.328125 -123.296875 563.328125 -174.484375 Z M 563.328125 -174.484375 "/></g></g></g></g></g><g clip-path="url(#e6e4c6c3ca)"><g transform="matrix(1, 0, 0, 1, 218, 356)"><g clip-path="url(#2d582d86ae)"><g clip-path="url(#f1e99c1077)"><path fill="#4fc3c3" d="M 0.078125 0.0742188 L 90.808594 0.0742188 L 90.808594 516.824219 L 0.078125 516.824219 Z M 0.078125 0.0742188 " fill-opacity="1" fill-rule="nonzero"/></g></g></g></g><g clip-path="url(#9c61ae59c2)"><g clip-path="url(#15379ef813)"><g transform="matrix(1, 0, 0, 1, 211, 871)"><g clip-path="url(#d20c62f881)"><g clip-path="url(#5a1bf1ec7a)"><g clip-path="url(#031a8a9d7b)"><path fill="#4fc3c3" d="M 97.808594 85.433594 L 0.234375 85.433594 L 0.234375 0.179688 L 97.808594 0.179688 Z M 97.808594 85.433594 " fill-opacity="1" fill-rule="nonzero"/></g></g></g></g></g></g><g clip-path="url(#5f93ec9d06)"><g transform="matrix(1, 0, 0, 1, 218, 833)"><g clip-path="url(#6fd1b35f81)"><g clip-path="url(#cb18920a61)"><path fill="#4fc3c3" d="M 0.078125 0.949219 L 33.902344 0.949219 L 33.902344 133.613281 L 0.078125 133.613281 Z M 0.078125 0.949219 " fill-opacity="1" fill-rule="nonzero"/></g></g></g></g></svg>